SplineFontDB: 3.2
FontName: SolresolStenoFull
FullName: Dore domilado solresol
FamilyName: SolresolStenoFull
Weight: Regular
Copyright: Copyright (c) 2021, Misha Klopukh, MIT License
UComments: "2021-9-18: Created with FontForge (http://fontforge.org)"
Version: 001.000
ItalicAngle: 0
UnderlinePosition: -100
UnderlineWidth: 50
Ascent: 800
Descent: 200
InvalidEm: 0
LayerCount: 2
Layer: 0 0 "Back" 1
Layer: 1 0 "Fore" 0
XUID: [1021 257 -408699679 8013588]
StyleMap: 0x0000
FSType: 0
OS2Version: 0
OS2_WeightWidthSlopeOnly: 0
OS2_UseTypoMetrics: 1
CreationTime: 1631998892
ModificationTime: 1632077679
PfmFamily: 65
TTFWeight: 400
TTFWidth: 5
LineGap: 90
VLineGap: 90
OS2TypoAscent: 0
OS2TypoAOffset: 1
OS2TypoDescent: 0
OS2TypoDOffset: 1
OS2TypoLinegap: 90
OS2WinAscent: 0
OS2WinAOffset: 1
OS2WinDescent: 0
OS2WinDOffset: 1
HheadAscent: 0
HheadAOffset: 1
HheadDescent: 0
HheadDOffset: 1
OS2Vendor: 'PfEd'
Lookup: 2 0 0 "CircumflexSub" { "CircumflexSub-1"  } [' RQD' ('DFLT' <'dflt' > 'latn' <'dflt' > ) ]
Lookup: 1 0 0 "LtrConversions" { "AllCaps"  } [' RQD' ('DFLT' <'dflt' > 'latn' <'dflt' > ) ]
Lookup: 4 0 0 "NoteNames" { "NoteNames-emph"  "NoteNames-base"  } [' RQD' ('DFLT' <'dflt' > 'latn' <'dflt' > ) ]
Lookup: 2 0 0 "NumSub" { "NumSub-1"  } [' RQD' ('DFLT' <'dflt' > 'latn' <'dflt' > ) ]
Lookup: 4 0 0 "DoubleSub" { "DoubleSub-1"  } [' RQD' ('DFLT' <'dflt' > 'latn' <'dflt' > ) ]
Lookup: 1 0 0 "AltCursSub" { "AltCursSub-la"  } []
Lookup: 5 0 0 "AltEntry" { "AltEntry-La"  } [' RQD' ('DFLT' <'dflt' > 'latn' <'dflt' > ) ]
Lookup: 259 0 0 "CursiveAttachment" { "CursiveAttachment-1"  } [' RQD' ('DFLT' <'dflt' > 'latn' <'dflt' > ) ]
MarkAttachClasses: 1
DEI: 91125
ContextSub2: class "AltEntry-La" 3 3 3 1
  Class: 17 do do_do si si_si
  Class: 8 la la_la
  BClass: 17 do do_do si si_si
  BClass: 8 la la_la
  FClass: 17 do do_do si si_si
  FClass: 8 la la_la
 2 0 0
  ClsList: 1 2
  BClsList:
  FClsList:
 1
  SeqLookup: 1 "AltCursSub"
  ClassNames: "All_Others" "lablocks" "las"

StartChar: M
Encoding: 0 77 0
Width: 1000
Flags: W
VStem: 251 65<171 245.789> 571 57<153 210.033>
LayerCount: 2
Fore
SplineSet
251 167 m 29
 265 596 l 25
 349 601 l 25
 406 455 l 25
 505 596 l 25
 643 602 l 25
 628 153 l 25
 571 144 l 25
 541 427 l 25
 431 280 l 25
 335 374 l 25
 316 171 l 25
 251 167 l 29
EndSplineSet
Validated: 1
EndChar

StartChar: F
Encoding: 1 70 1
Width: 1000
Flags: W
HStem: 536 60<563.444 641>
LayerCount: 2
Fore
SplineSet
319 623 m 29
 291 117 l 25
 394 95 l 25
 430 343 l 25
 625 342 l 25
 639 422 l 25
 437 423 l 25
 432 522 l 25
 641 536 l 25
 649 596 l 25
 319 623 l 29
EndSplineSet
Validated: 9
EndChar

StartChar: S
Encoding: 2 83 2
Width: 1000
Flags: W
HStem: 528 60<479 514>
VStem: 539 62<287 331.188>
LayerCount: 2
Fore
SplineSet
536 588 m 29
 380 582 l 25
 311 516 l 25
 299 439 l 25
 409 377 l 25
 542 347 l 25
 539 264 l 25
 430 202 l 25
 313 163 l 25
 323 119 l 25
 488 112 l 25
 598 198 l 25
 601 287 l 25
 585 388 l 25
 433 433 l 25
 414 508 l 25
 514 528 l 25
 536 588 l 29
EndSplineSet
Validated: 9
EndChar

StartChar: L
Encoding: 3 76 3
Width: 1000
Flags: W
VStem: 307 79<561.273 616>
LayerCount: 2
Fore
SplineSet
307 621 m 29
 323 149 l 25
 674 179 l 25
 638 289 l 25
 430 272 l 25
 386 616 l 25
 307 621 l 29
EndSplineSet
Validated: 9
EndChar

StartChar: f
Encoding: 5 102 5
Width: 1000
Flags: W
HStem: 198 344<212 730>
LayerCount: 2
Fore
SplineSet
212 542 m 5
 730 542 l 5
 730 198 l 5
 212 198 l 5
 212 542 l 5
EndSplineSet
Validated: 1
Substitution2: "AllCaps" F
EndChar

StartChar: l
Encoding: 6 108 6
Width: 1000
Flags: W
HStem: 198 344<212 730>
LayerCount: 2
Fore
SplineSet
212 542 m 5
 730 542 l 5
 730 198 l 5
 212 198 l 5
 212 542 l 5
EndSplineSet
Validated: 1
Substitution2: "AllCaps" L
EndChar

StartChar: m
Encoding: 7 109 7
Width: 1000
Flags: W
HStem: 198 344<212 730>
LayerCount: 2
Fore
SplineSet
212 542 m 5
 730 542 l 5
 730 198 l 5
 212 198 l 5
 212 542 l 5
EndSplineSet
Validated: 1
Substitution2: "AllCaps" M
EndChar

StartChar: s
Encoding: 8 115 8
Width: 1000
Flags: W
HStem: 198 344<212 730>
LayerCount: 2
Fore
SplineSet
212 542 m 5
 730 542 l 5
 730 198 l 5
 212 198 l 5
 212 542 l 5
EndSplineSet
Validated: 1
Substitution2: "AllCaps" S
EndChar

StartChar: e
Encoding: 9 101 9
Width: 1000
Flags: W
HStem: 198 344<212 730>
LayerCount: 2
Fore
SplineSet
212 542 m 5
 730 542 l 5
 730 198 l 5
 212 198 l 5
 212 542 l 5
EndSplineSet
Validated: 1
Substitution2: "AllCaps" E
EndChar

StartChar: O
Encoding: 10 79 10
Width: 1000
Flags: W
LayerCount: 2
Fore
SplineSet
422 510 m 1
 519 511 l 25
 570 363 l 25
 520 214 l 25
 398 193 l 25
 330 307 l 1
 353 449 l 29
 422 510 l 1
330 611 m 25
 219 374 l 25
 223 184 l 25
 330 73 l 25
 560 84 l 25
 650 175 l 25
 677 345 l 25
 653 515 l 25
 560 614 l 25
 330 611 l 25
EndSplineSet
Validated: 9
EndChar

StartChar: E
Encoding: 11 69 11
Width: 1000
Flags: W
HStem: 394 95<516.519 565> 604 56<531.087 623.625>
LayerCount: 2
Fore
SplineSet
321 637 m 29
 293 81 l 25
 580 69 l 25
 558 171 l 25
 391 210 l 25
 378 367 l 25
 565 394 l 25
 576 489 l 25
 392 477 l 25
 401 593 l 25
 628 604 l 25
 623 660 l 25
 321 637 l 29
EndSplineSet
Validated: 9
EndChar

StartChar: I
Encoding: 12 73 12
Width: 1000
Flags: W
HStem: 105 56<233 353> 114 60<397 526> 586 61<442.545 507>
VStem: 334 62<437.947 596> 353 44<176 325.053>
LayerCount: 2
Fore
SplineSet
334 596 m 29x70
 353 167 l 25
 216 161 l 25
 233 105 l 25xa8
 526 114 l 25
 540 174 l 25
 397 176 l 25x68
 396 597 l 25
 524 586 l 25
 507 647 l 25
 243 650 l 25
 246 586 l 25
 334 596 l 29x70
EndSplineSet
Validated: 9
EndChar

StartChar: A
Encoding: 13 65 13
Width: 1000
Flags: W
HStem: 644 20G<508.912 530.139>
LayerCount: 2
Fore
SplineSet
786 106 m 1053
220 166 m 25
 521 664 l 25
 728 211 l 25
 609 154 l 25
 530 350 l 25
 409 333 l 25
 335 155 l 25
 220 166 l 25
497 519 m 25
 428 397 l 25
 552 408 l 25
 497 519 l 25
EndSplineSet
Validated: 1
EndChar

StartChar: do
Encoding: 14 57600 14
Width: 339
VWidth: 799
Flags: W
HStem: 638.622 20.6016<117.595 223.213>
AnchorPoint: "CursPos" 327.554 488.475 exit 0
AnchorPoint: "CursPos" 7.55371 491.475 entry 0
LayerCount: 2
Fore
SplineSet
44.5537109375 604.474609375 m 4
 77.8076171875 640.724609375 127.463867188 661.311523438 176.612304688 659.223632812 c 4
 225.760742188 657.13671875 273.4921875 632.4140625 303.553710938 593.474609375 c 4
 324.8828125 565.845703125 337.364257812 531.490234375 338.741210938 496.61328125 c 4
 340.119140625 461.736328125 330.387695312 426.502929688 311.303710938 397.27734375 c 4
 292.219726562 368.051757812 263.875 344.973632812 231.388671875 332.208984375 c 4
 198.901367188 319.4453125 162.427734375 317.056640625 128.553710938 325.474609375 c 4
 100.192382812 332.5234375 73.7275390625 347.059570312 52.564453125 367.212890625 c 4
 31.4013671875 387.366210938 15.58984375 413.08984375 7.1640625 441.073242188 c 4
 -1.2607421875 469.055664062 -2.279296875 499.233398438 4.2392578125 527.720703125 c 4
 10.7578125 556.208984375 24.7978515625 582.939453125 44.5537109375 604.474609375 c 4
  Spiro
    44.5531 604.475 o
    303.553 593.475 o
    128.553 325.475 o
    0 0 z
  EndSpiro
140.553710938 339.474609375 m 4
 170.655273438 333.4609375 202.577148438 336.909179688 230.701171875 349.211914062 c 4
 258.825195312 361.515625 283.024414062 382.6171875 299.040039062 408.805664062 c 4
 315.055664062 434.993164062 322.81640625 466.1484375 320.955078125 496.7890625 c 4
 319.094726562 527.430664062 307.62109375 557.41796875 288.553710938 581.474609375 c 4
 261.46875 615.647460938 218.979492188 637.106445312 175.40234375 638.622070312 c 4
 131.82421875 640.137695312 87.9462890625 621.682617188 58.5537109375 589.474609375 c 4
 40.6171875 569.821289062 28.013671875 545.34765625 22.4306640625 519.33203125 c 4
 16.84765625 493.31640625 18.2998046875 465.826171875 26.591796875 440.543945312 c 4
 34.884765625 415.260742188 49.9970703125 392.250976562 69.9033203125 374.596679688 c 4
 89.810546875 356.94140625 114.4609375 344.6875 140.553710938 339.474609375 c 4
  Spiro
    140.553 339.475 o
    288.553 581.475 o
    58.5531 589.475 o
    0 0 z
  EndSpiro
EndSplineSet
Validated: 33
Ligature2: "NoteNames-base" D O
LCarets2: 1 0
EndChar

StartChar: re
Encoding: 15 57601 15
Width: 30
VWidth: 813
Flags: W
VStem: 4.90332 14<345.466 433.603 674.846 691.255>
AnchorPoint: "CursPos" 9.90332 344.042 exit 0
AnchorPoint: "CursPos" 16.9033 686.042 entry 0
LayerCount: 2
Fore
SplineSet
8.9033203125 687.041992188 m 0
 -3.0966796875 554.541992188 -1.4296875 479.026367188 4.9033203125 346.041992188 c 0
 5.4033203125 335.541992188 17.984375 338.534179688 18.9033203125 349.041992188 c 0
 30.4033203125 480.541992188 33.6923828125 555.198242188 24.9033203125 687.041992188 c 0
 24.4033203125 694.541992188 9.5810546875 694.52734375 8.9033203125 687.041992188 c 0
EndSplineSet
Validated: 41
Ligature2: "NoteNames-base" R E
LCarets2: 1 0
EndChar

StartChar: mi
Encoding: 16 57602 16
Width: 340
VWidth: 808
Flags: W
HStem: 646.819 20.6016<117.992 223.61>
VStem: 0.951172 15<499.113 528.593> 322.951 16.1885<490.384 540.28>
AnchorPoint: "CursPos" 331.951 502.672 exit 0
AnchorPoint: "CursPos" 4.95117 508.672 entry 0
LayerCount: 2
Fore
SplineSet
321.352539062 504.986328125 m 0
 319.4921875 535.626953125 308.018554688 565.615234375 288.951171875 589.671875 c 0
 261.8671875 623.844726562 219.376953125 645.303710938 175.799804688 646.819335938 c 0
 132.221679688 648.334960938 88.34375 629.879882812 58.951171875 597.671875 c 0
 41.0146484375 578.018554688 33.4423828125 556.517578125 22.828125 527.529296875 c 0
 19.951171875 519.671875 17.8798828125 506.21875 15.951171875 503.171875 c 0
 13.0537109375 498.595703125 2.0517578125 496.620117188 0.951171875 502.671875 c 0
 -0.048828125 508.171875 -1.6552734375 507.1953125 4.63671875 535.91796875 c 0
 10.890625 564.46484375 25.1953125 591.13671875 44.951171875 612.671875 c 0
 78.205078125 648.921875 127.861328125 669.508789062 177.009765625 667.420898438 c 0
 226.158203125 665.333984375 273.889648438 640.611328125 303.951171875 601.671875 c 0
 325.28125 574.04296875 337.76171875 539.6875 339.139648438 504.810546875 c 0
 340.517578125 469.93359375 340.451171875 495.171875 337.951171875 490.171875 c 0
 336.951171875 488.171875 334.451171875 485.171875 331.951171875 485.171875 c 24
 328.451171875 485.171875 326.951171875 484.171875 322.951171875 491.171875 c 0
 320.267578125 495.868164062 321.6875 499.473632812 321.352539062 504.986328125 c 0
EndSplineSet
Validated: 33
Ligature2: "NoteNames-base" M I
LCarets2: 1 0
EndChar

StartChar: fa
Encoding: 17 57603 17
Width: 223
VWidth: 809
Flags: W
AnchorPoint: "CursPos" 214.978 358.061 exit 0
AnchorPoint: "CursPos" 6.97754 662.561 entry 0
LayerCount: 2
Fore
SplineSet
0.9775390625 657.560546875 m 0
 75.4775390625 536.560546875 119.079101562 464.68359375 207.977539062 353.560546875 c 0
 211.977539062 348.560546875 226.40234375 355.012695312 222.977539062 360.560546875 c 0
 147.977539062 482.060546875 100.170898438 550.208984375 12.9775390625 663.560546875 c 0
 7.9775390625 670.060546875 -3.384765625 664.646484375 0.9775390625 657.560546875 c 0
EndSplineSet
Validated: 9
Ligature2: "NoteNames-base" F A
LCarets2: 1 0
EndChar

StartChar: sol
Encoding: 18 57604 18
Width: 317
VWidth: 827
Flags: W
HStem: 538.516 15<0.645519 316.711>
AnchorPoint: "CursPos" 307.874 542.016 exit 0
AnchorPoint: "CursPos" 8.87402 547.016 entry 0
LayerCount: 2
Fore
SplineSet
3.3740234375 553.515625 m 0
 118.874023438 558.015625 198.1171875 559.120117188 313.374023438 549.515625 c 0
 319.374023438 549.015625 318.374023438 534.515625 312.374023438 534.515625 c 24
 197.874023438 530.015625 118.03125 538.515625 3.3740234375 538.515625 c 0
 -1.1259765625 538.515625 -1.123046875 553.340820312 3.3740234375 553.515625 c 0
EndSplineSet
Validated: 33
Ligature2: "NoteNames-base" S O L
LCarets2: 2 0 0
EndChar

StartChar: la
Encoding: 19 57605 19
Width: 182
VWidth: 810
Flags: W
HStem: 342.314 15<138.972 168.452> 662.716 17.7871<120.923 177.181>
VStem: 0.144531 20.6016<459.356 564.973>
AnchorPoint: "CursPos" 161.036 348.191 exit 0
AnchorPoint: "CursPos" 177.036 672.191 entry 0
LayerCount: 2
Fore
SplineSet
162.579101562 662.715820312 m 0
 131.938476562 660.85546875 101.950195312 649.381835938 77.8935546875 630.314453125 c 0
 43.720703125 603.229492188 22.26171875 560.740234375 20.74609375 517.163085938 c 0
 19.23046875 473.584960938 37.685546875 429.70703125 69.8935546875 400.314453125 c 0
 89.546875 382.377929688 111.047851562 374.805664062 140.036132812 364.19140625 c 0
 147.893554688 361.314453125 161.346679688 359.243164062 164.393554688 357.314453125 c 0
 168.969726562 354.416992188 170.9453125 343.415039062 164.893554688 342.314453125 c 0
 159.393554688 341.314453125 160.370117188 339.708007812 131.647460938 346 c 0
 103.100585938 352.252929688 76.4287109375 366.55859375 54.8935546875 386.314453125 c 0
 18.6435546875 419.568359375 -1.943359375 469.224609375 0.14453125 518.373046875 c 0
 2.2314453125 567.521484375 26.9541015625 615.252929688 65.8935546875 645.314453125 c 0
 93.5224609375 666.643554688 127.877929688 679.125 162.754882812 680.502929688 c 0
 197.631835938 681.879882812 172.393554688 681.814453125 177.393554688 679.314453125 c 0
 179.393554688 678.314453125 182.393554688 675.814453125 182.393554688 673.314453125 c 24
 182.393554688 669.814453125 183.393554688 668.314453125 176.393554688 664.314453125 c 0
 171.697265625 661.630859375 168.091796875 663.05078125 162.579101562 662.715820312 c 0
EndSplineSet
Validated: 33
Ligature2: "NoteNames-base" L A
Substitution2: "AltCursSub-la" la.alt
LCarets2: 1 0
EndChar

StartChar: si
Encoding: 20 57606 20
Width: 223
VWidth: 698
Flags: W
HStem: 231.561 310
VStem: 0.521484 222
AnchorPoint: "CursPos" 216.021 539.561 exit 0
AnchorPoint: "CursPos" 6.52148 235.061 entry 0
LayerCount: 2
Fore
SplineSet
222.521484375 535.560546875 m 0
 148.021484375 414.560546875 104.419921875 342.68359375 15.521484375 231.560546875 c 0
 11.521484375 226.560546875 -2.9033203125 233.012695312 0.521484375 238.560546875 c 0
 75.521484375 360.060546875 123.328125 428.208984375 210.521484375 541.560546875 c 0
 215.521484375 548.060546875 226.883789062 542.646484375 222.521484375 535.560546875 c 0
EndSplineSet
Validated: 1
Ligature2: "NoteNames-base" S I
LCarets2: 1 0
EndChar

StartChar: do_do
Encoding: 21 57616 21
Width: 339
VWidth: 816
Flags: HMW
AnchorPoint: "CursPos" 327.553 505.278 exit 0
AnchorPoint: "CursPos" 7.55273 508.278 entry 0
LayerCount: 2
Fore
SplineSet
157.5 709.778320312 m 1
 184.5 709.778320312 l 1
 184.5 594.778320312 l 1
 157.5 594.778320312 l 1
 157.5 709.778320312 l 1
44.552734375 621.278320312 m 0
 77.8076171875 657.528320312 127.463867188 678.114257812 176.612304688 676.02734375 c 0
 225.760742188 673.939453125 273.491210938 649.216796875 303.552734375 610.278320312 c 0
 324.8828125 582.649414062 337.36328125 548.293945312 338.741210938 513.416015625 c 0
 340.119140625 478.5390625 330.387695312 443.306640625 311.303710938 414.081054688 c 0
 292.219726562 384.85546875 263.875 361.776367188 231.387695312 349.012695312 c 0
 198.901367188 336.248046875 162.427734375 333.859375 128.552734375 342.278320312 c 0
 100.19140625 349.326171875 73.7265625 363.862304688 52.5634765625 384.015625 c 0
 31.400390625 404.169921875 15.58984375 429.892578125 7.1640625 457.875976562 c 0
 -1.2607421875 485.859375 -2.279296875 516.036132812 4.2392578125 544.524414062 c 0
 10.7568359375 573.01171875 24.7978515625 599.743164062 44.552734375 621.278320312 c 0
140.552734375 356.278320312 m 0
 170.655273438 350.264648438 202.577148438 353.712890625 230.701171875 366.015625 c 0
 258.825195312 378.318359375 283.024414062 399.420898438 299.040039062 425.608398438 c 0
 315.055664062 451.796875 322.81640625 482.952148438 320.955078125 513.592773438 c 0
 319.09375 544.233398438 307.620117188 574.220703125 288.552734375 598.278320312 c 0
 261.46875 632.450195312 218.979492188 653.91015625 175.401367188 655.42578125 c 0
 131.82421875 656.94140625 87.9462890625 638.486328125 58.552734375 606.278320312 c 0
 40.6171875 586.624023438 28.013671875 562.150390625 22.4306640625 536.134765625 c 0
 16.8466796875 510.119140625 18.298828125 482.62890625 26.591796875 457.346679688 c 0
 34.884765625 432.064453125 49.99609375 409.0546875 69.9033203125 391.399414062 c 0
 89.810546875 373.745117188 114.4609375 361.490234375 140.552734375 356.278320312 c 0
EndSplineSet
Validated: 37
Ligature2: "DoubleSub-1" do do
LCarets2: 1 0
EndChar

StartChar: re_re
Encoding: 22 57617 22
Width: 116
VWidth: 813
Flags: W
HStem: 511.5 21.5<1.88536 39.8426 72.3834 116.374>
VStem: 46.0928 14<345.466 433.603 674.846 691.255>
AnchorPoint: "CursPos" 51.0928 344.042 exit 0
AnchorPoint: "CursPos" 58.0928 686.042 entry 0
LayerCount: 2
Fore
SplineSet
6 511.5 m 4
 38 503.5 79.248046875 505.588867188 111.5 512.5 c 4
 118.5 514 119.05078125 529.702148438 111.5 531.5 c 4
 80 539 38.9423828125 540.735351562 8 533 c 4
 0 531 -2 513.5 6 511.5 c 4
50.0927734375 687.041992188 m 0
 38.0927734375 554.541992188 39.7607421875 479.026367188 46.0927734375 346.041992188 c 0
 46.5927734375 335.541992188 59.173828125 338.534179688 60.0927734375 349.041992188 c 0
 71.5927734375 480.541992188 74.8828125 555.198242188 66.0927734375 687.041992188 c 0
 65.5927734375 694.541992188 50.7705078125 694.52734375 50.0927734375 687.041992188 c 0
EndSplineSet
Validated: 524325
Ligature2: "DoubleSub-1" re re
LCarets2: 1 87
EndChar

StartChar: mi_mi
Encoding: 23 57618 23
Width: 340
VWidth: 846
Flags: W
HStem: 634.147 20.6016<119.041 224.659>
VStem: 2 15<486.441 515.921> 159.049 26<581 691> 324 16.1885<477.713 527.608>
AnchorPoint: "CursPos" 333 490 exit 0
AnchorPoint: "CursPos" 6 496 entry 0
LayerCount: 2
Fore
SplineSet
159.048828125 691 m 5
 185.048828125 691 l 5
 185.048828125 581 l 5
 159.048828125 581 l 5
 159.048828125 691 l 5
322.401367188 492.314453125 m 4
 320.541015625 522.955078125 309.067382812 552.942382812 290 577 c 4
 262.916015625 611.171875 220.42578125 632.631835938 176.848632812 634.147460938 c 4
 133.270507812 635.663085938 89.392578125 617.208007812 60 585 c 4
 42.0634765625 565.345703125 34.4912109375 543.844726562 23.876953125 514.856445312 c 4
 21 507 18.9287109375 493.545898438 17 490.5 c 4
 14.1025390625 485.922851562 3.1005859375 483.948242188 2 490 c 4
 1 495.5 -0.6064453125 494.522460938 5.685546875 523.24609375 c 4
 11.939453125 551.79296875 26.244140625 578.46484375 46 600 c 4
 79.25390625 636.25 128.91015625 656.8359375 178.05859375 654.749023438 c 4
 227.20703125 652.661132812 274.938476562 627.938476562 305 589 c 4
 326.330078125 561.37109375 338.810546875 527.015625 340.188476562 492.137695312 c 4
 341.56640625 457.260742188 341.5 482.5 339 477.5 c 4
 338 475.5 335.5 472.5 333 472.5 c 28
 329.5 472.5 328 471.5 324 478.5 c 4
 321.31640625 483.1953125 322.736328125 486.801757812 322.401367188 492.314453125 c 4
EndSplineSet
Validated: 37
Ligature2: "DoubleSub-1" mi mi
LCarets2: 1 255
EndChar

StartChar: fa_fa
Encoding: 24 57619 24
Width: 223
VWidth: 809
Flags: W
AnchorPoint: "CursPos" 214.978 358.061 exit 0
AnchorPoint: "CursPos" 6.97754 662.561 entry 0
LayerCount: 2
Fore
SplineSet
141.477539062 571.060546875 m 4
 113.977539062 560.560546875 61.4775390625 522.560546875 40.4775390625 501.560546875 c 4
 36.4775390625 497.560546875 43.439453125 488.159179688 48.4775390625 490.060546875 c 4
 74.9775390625 500.060546875 127.954101562 536.638671875 148.977539062 555.560546875 c 4
 153.977539062 560.060546875 147.983398438 573.543945312 141.477539062 571.060546875 c 4
0.9775390625 657.560546875 m 0
 75.4775390625 536.560546875 119.079101562 464.68359375 207.977539062 353.560546875 c 0
 211.977539062 348.560546875 226.40234375 355.012695312 222.977539062 360.560546875 c 0
 147.977539062 482.060546875 100.170898438 550.208984375 12.9775390625 663.560546875 c 0
 7.9775390625 670.060546875 -3.384765625 664.646484375 0.9775390625 657.560546875 c 0
EndSplineSet
Validated: 5
Ligature2: "DoubleSub-1" fa fa
LCarets2: 1 168
EndChar

StartChar: sol_sol
Encoding: 25 57620 25
Width: 317
VWidth: 825
Flags: W
HStem: 536.75 15<0.645519 316.711>
VStem: 158.5 16<500.75 582.25>
AnchorPoint: "CursPos" 307.874 540.25 exit 0
AnchorPoint: "CursPos" 8.87402 545.25 entry 0
LayerCount: 2
Fore
SplineSet
158.5 582.75 m 5
 174.5 582.25 l 1
 174.5 500.25 l 1
 158.5 500.75 l 5
 158.5 582.75 l 5
3.3740234375 551.75 m 0
 118.874023438 556.25 198.1171875 557.354492188 313.374023438 547.75 c 0
 319.374023438 547.25 318.374023438 532.75 312.374023438 532.75 c 24
 197.874023438 528.25 118.03125 536.75 3.3740234375 536.75 c 0
 -1.1259765625 536.75 -1.123046875 551.57421875 3.3740234375 551.75 c 0
EndSplineSet
Validated: 37
Ligature2: "DoubleSub-1" sol sol
LCarets2: 1 238
EndChar

StartChar: la_la
Encoding: 26 57621 26
Width: 206
VWidth: 810
Flags: W
HStem: 342.314 15<162.185 191.664> 512.191 16.5<0.138958 97.2208> 662.716 17.7871<144.135 200.393>
VStem: 23.3564 20.6016<459.356 564.973>
AnchorPoint: "CursPos" 184.249 348.191 exit 0
AnchorPoint: "CursPos" 200.249 672.191 entry 0
LayerCount: 2
Fore
SplineSet
4.7490234375 528.69140625 m 0
 31.7490234375 535.69140625 68.591796875 533.481445312 96 528 c 0
 101 527 97.064453125 514.265625 92 513 c 0
 66 506.5 31.8701171875 508.459960938 5.7490234375 512.19140625 c 0
 -1.2509765625 513.19140625 -2.1806640625 526.89453125 4.7490234375 528.69140625 c 0
185.791015625 662.715820312 m 0
 155.150390625 660.85546875 125.163085938 649.381835938 101.10546875 630.314453125 c 0
 66.93359375 603.229492188 45.4736328125 560.740234375 43.9580078125 517.163085938 c 0
 42.4423828125 473.584960938 60.8974609375 429.70703125 93.10546875 400.314453125 c 0
 112.759765625 382.377929688 134.260742188 374.805664062 163.249023438 364.19140625 c 0
 171.10546875 361.314453125 184.559570312 359.243164062 187.60546875 357.314453125 c 0
 192.182617188 354.416992188 194.157226562 343.415039062 188.10546875 342.314453125 c 0
 182.60546875 341.314453125 183.583007812 339.708007812 154.859375 346 c 0
 126.3125 352.252929688 99.640625 366.55859375 78.10546875 386.314453125 c 0
 41.85546875 419.568359375 21.26953125 469.224609375 23.3564453125 518.373046875 c 0
 25.4443359375 567.521484375 50.1669921875 615.252929688 89.10546875 645.314453125 c 0
 116.734375 666.643554688 151.08984375 679.125 185.967773438 680.502929688 c 0
 220.844726562 681.879882812 195.60546875 681.814453125 200.60546875 679.314453125 c 0
 202.60546875 678.314453125 205.60546875 675.814453125 205.60546875 673.314453125 c 24
 205.60546875 669.814453125 206.60546875 668.314453125 199.60546875 664.314453125 c 0
 194.91015625 661.630859375 191.303710938 663.05078125 185.791015625 662.715820312 c 0
EndSplineSet
Validated: 37
Ligature2: "DoubleSub-1" la la
Substitution2: "AltCursSub-la" la_la.alt
LCarets2: 1 154
EndChar

StartChar: si_si
Encoding: 27 57622 27
Width: 223
VWidth: 698
Flags: W
HStem: 231.561 310
VStem: 0.521484 222
AnchorPoint: "CursPos" 216.021 539.561 exit 0
AnchorPoint: "CursPos" 6.52148 235.061 entry 0
LayerCount: 2
Fore
SplineSet
65.021484375 420.060546875 m 28
 108.021484375 403.560546875 131.521484375 391.060546875 169.021484375 364.560546875 c 28
 174.021484375 361.060546875 168.021484375 349.060546875 162.521484375 351.060546875 c 28
 118.521484375 367.560546875 95.021484375 380.560546875 56.521484375 407.560546875 c 28
 51.521484375 411.060546875 59.521484375 422.060546875 65.021484375 420.060546875 c 28
222.521484375 535.560546875 m 0
 148.021484375 414.560546875 104.419921875 342.68359375 15.521484375 231.560546875 c 0
 11.521484375 226.560546875 -2.9033203125 233.012695312 0.521484375 238.560546875 c 0
 75.521484375 360.060546875 123.328125 428.208984375 210.521484375 541.560546875 c 0
 215.521484375 548.060546875 226.883789062 542.646484375 222.521484375 535.560546875 c 0
EndSplineSet
Validated: 5
Ligature2: "DoubleSub-1" si si
LCarets2: 1 0
EndChar

StartChar: a
Encoding: 28 97 28
Width: 1000
Flags: W
HStem: 198 344<212 730>
LayerCount: 2
Fore
SplineSet
212 542 m 5
 730 542 l 5
 730 198 l 5
 212 198 l 5
 212 542 l 5
EndSplineSet
Validated: 1
Substitution2: "AllCaps" A
EndChar

StartChar: i
Encoding: 29 105 29
Width: 1000
Flags: W
HStem: 198 344<212 730>
LayerCount: 2
Fore
SplineSet
212 542 m 5
 730 542 l 5
 730 198 l 5
 212 198 l 5
 212 542 l 5
EndSplineSet
Validated: 1
Substitution2: "AllCaps" I
EndChar

StartChar: o
Encoding: 30 111 30
Width: 1000
Flags: W
HStem: 198 344<212 730>
LayerCount: 2
Fore
SplineSet
212 542 m 5
 730 542 l 5
 730 198 l 5
 212 198 l 5
 212 542 l 5
EndSplineSet
Validated: 1
Substitution2: "AllCaps" O
EndChar

StartChar: period
Encoding: 31 46 31
Width: 362
Flags: W
VStem: 230 14<-38 814> 258 50<-36 814>
LayerCount: 2
Fore
SplineSet
258 814 m 1
 308 814 l 1
 308 -36 l 1
 258 -36 l 1
 258 814 l 1
230 814 m 1
 244 814 l 1
 244 -38 l 1
 230 -38 l 1
 230 814 l 1
EndSplineSet
Validated: 1
EndChar

StartChar: comma
Encoding: 32 44 32
Width: 276
Flags: W
VStem: 232 14<-38 814>
LayerCount: 2
Fore
SplineSet
232 814 m 1
 246 814 l 1
 246 -38 l 1
 232 -38 l 1
 232 814 l 1
EndSplineSet
Validated: 1
EndChar

StartChar: zero
Encoding: 33 48 33
Width: 1000
Flags: W
HStem: 198 344<212 730>
LayerCount: 2
Fore
SplineSet
212 542 m 5
 730 542 l 5
 730 198 l 5
 212 198 l 5
 212 542 l 5
EndSplineSet
Validated: 1
MultipleSubs2: "NumSub-1" sol do
EndChar

StartChar: one
Encoding: 34 49 34
Width: 1000
Flags: W
HStem: 198 344<212 730>
LayerCount: 2
Fore
SplineSet
212 542 m 5
 730 542 l 5
 730 198 l 5
 212 198 l 5
 212 542 l 5
EndSplineSet
Validated: 1
MultipleSubs2: "NumSub-1" re do do
EndChar

StartChar: two
Encoding: 35 50 35
Width: 1000
Flags: W
HStem: 198 344<212 730>
LayerCount: 2
Fore
SplineSet
212 542 m 5
 730 542 l 5
 730 198 l 5
 212 198 l 5
 212 542 l 5
EndSplineSet
Validated: 1
MultipleSubs2: "NumSub-1" re mi mi
EndChar

StartChar: three
Encoding: 36 51 36
Width: 1000
Flags: W
HStem: 198 344<212 730>
LayerCount: 2
Fore
SplineSet
212 542 m 5
 730 542 l 5
 730 198 l 5
 212 198 l 5
 212 542 l 5
EndSplineSet
Validated: 1
MultipleSubs2: "NumSub-1" re fa fa
EndChar

StartChar: four
Encoding: 37 52 37
Width: 1000
Flags: W
HStem: 198 344<212 730>
LayerCount: 2
Fore
SplineSet
212 542 m 5
 730 542 l 5
 730 198 l 5
 212 198 l 5
 212 542 l 5
EndSplineSet
Validated: 1
MultipleSubs2: "NumSub-1" re sol sol
EndChar

StartChar: five
Encoding: 38 53 38
Width: 1000
Flags: W
HStem: 198 344<212 730>
LayerCount: 2
Fore
SplineSet
212 542 m 5
 730 542 l 5
 730 198 l 5
 212 198 l 5
 212 542 l 5
EndSplineSet
Validated: 1
MultipleSubs2: "NumSub-1" re la la
EndChar

StartChar: six
Encoding: 39 54 39
Width: 1000
Flags: W
HStem: 198 344<212 730>
LayerCount: 2
Fore
SplineSet
212 542 m 5
 730 542 l 5
 730 198 l 5
 212 198 l 5
 212 542 l 5
EndSplineSet
Validated: 1
MultipleSubs2: "NumSub-1" re si si
EndChar

StartChar: seven
Encoding: 40 55 40
Width: 1000
Flags: W
HStem: 198 344<212 730>
LayerCount: 2
Fore
SplineSet
212 542 m 5
 730 542 l 5
 730 198 l 5
 212 198 l 5
 212 542 l 5
EndSplineSet
Validated: 1
MultipleSubs2: "NumSub-1" mi mi do
EndChar

StartChar: eight
Encoding: 41 56 41
Width: 1000
Flags: W
HStem: 198 344<212 730>
LayerCount: 2
Fore
SplineSet
212 542 m 5
 730 542 l 5
 730 198 l 5
 212 198 l 5
 212 542 l 5
EndSplineSet
Validated: 1
MultipleSubs2: "NumSub-1" mi mi re
EndChar

StartChar: nine
Encoding: 42 57 42
Width: 1000
Flags: W
HStem: 198 344<212 730>
LayerCount: 2
Fore
SplineSet
212 542 m 5
 730 542 l 5
 730 198 l 5
 212 198 l 5
 212 542 l 5
EndSplineSet
Validated: 1
MultipleSubs2: "NumSub-1" mi mi fa
EndChar

StartChar: colon
Encoding: 43 58 43
Width: 302
Flags: W
VStem: 223 14<-37 815> 258 14<-38 814>
LayerCount: 2
Fore
SplineSet
258 814 m 1
 272 814 l 1
 272 -38 l 1
 258 -38 l 1
 258 814 l 1
223 815 m 1
 237 815 l 1
 237 -37 l 1
 223 -37 l 1
 223 815 l 1
EndSplineSet
Validated: 1
EndChar

StartChar: semicolon
Encoding: 44 59 44
Width: 306
Flags: W
VStem: 227 14<-37 815> 262 14<-38 814>
LayerCount: 2
Fore
SplineSet
262 814 m 1
 276 814 l 1
 276 -38 l 1
 262 -38 l 1
 262 814 l 1
227 815 m 1
 241 815 l 1
 241 -37 l 1
 227 -37 l 1
 227 815 l 1
EndSplineSet
Validated: 1
EndChar

StartChar: la_la.alt
Encoding: 45 57623 45
Width: 206
VWidth: 810
Flags: W
HStem: 342.314 15<162.185 191.664> 512.191 16.5<0.138958 97.2208> 662.716 17.7871<144.135 200.393>
VStem: 23.3564 20.6016<459.356 564.973>
AnchorPoint: "CursPos" 184.249 348.191 exit 0
AnchorPoint: "CursPos" 35.249 518.191 entry 0
LayerCount: 2
Fore
SplineSet
4.7490234375 528.69140625 m 0
 31.7490234375 535.69140625 68.591796875 533.481445312 96 528 c 0
 101 527 97.064453125 514.265625 92 513 c 0
 66 506.5 31.8701171875 508.459960938 5.7490234375 512.19140625 c 0
 -1.2509765625 513.19140625 -2.1806640625 526.89453125 4.7490234375 528.69140625 c 0
185.791015625 662.715820312 m 0
 155.150390625 660.85546875 125.163085938 649.381835938 101.10546875 630.314453125 c 0
 66.93359375 603.229492188 45.4736328125 560.740234375 43.9580078125 517.163085938 c 0
 42.4423828125 473.584960938 60.8974609375 429.70703125 93.10546875 400.314453125 c 0
 112.759765625 382.377929688 134.260742188 374.805664062 163.249023438 364.19140625 c 0
 171.10546875 361.314453125 184.559570312 359.243164062 187.60546875 357.314453125 c 0
 192.182617188 354.416992188 194.157226562 343.415039062 188.10546875 342.314453125 c 0
 182.60546875 341.314453125 183.583007812 339.708007812 154.859375 346 c 0
 126.3125 352.252929688 99.640625 366.55859375 78.10546875 386.314453125 c 0
 41.85546875 419.568359375 21.26953125 469.224609375 23.3564453125 518.373046875 c 0
 25.4443359375 567.521484375 50.1669921875 615.252929688 89.10546875 645.314453125 c 0
 116.734375 666.643554688 151.08984375 679.125 185.967773438 680.502929688 c 0
 220.844726562 681.879882812 195.60546875 681.814453125 200.60546875 679.314453125 c 0
 202.60546875 678.314453125 205.60546875 675.814453125 205.60546875 673.314453125 c 24
 205.60546875 669.814453125 206.60546875 668.314453125 199.60546875 664.314453125 c 0
 194.91015625 661.630859375 191.303710938 663.05078125 185.791015625 662.715820312 c 0
EndSplineSet
Validated: 37
EndChar

StartChar: la.alt
Encoding: 46 57607 46
Width: 182
VWidth: 810
Flags: W
HStem: 342.314 15<138.972 168.452> 662.716 17.7871<120.923 177.181>
VStem: 0.144531 20.6016<459.356 564.973>
AnchorPoint: "CursPos" 161.036 348.191 exit 0
AnchorPoint: "CursPos" 11.0361 511.191 entry 0
LayerCount: 2
Fore
SplineSet
162.579101562 662.715820312 m 0
 131.938476562 660.85546875 101.950195312 649.381835938 77.8935546875 630.314453125 c 0
 43.720703125 603.229492188 22.26171875 560.740234375 20.74609375 517.163085938 c 0
 19.23046875 473.584960938 37.685546875 429.70703125 69.8935546875 400.314453125 c 0
 89.546875 382.377929688 111.047851562 374.805664062 140.036132812 364.19140625 c 0
 147.893554688 361.314453125 161.346679688 359.243164062 164.393554688 357.314453125 c 0
 168.969726562 354.416992188 170.9453125 343.415039062 164.893554688 342.314453125 c 0
 159.393554688 341.314453125 160.370117188 339.708007812 131.647460938 346 c 0
 103.100585938 352.252929688 76.4287109375 366.55859375 54.8935546875 386.314453125 c 0
 18.6435546875 419.568359375 -1.943359375 469.224609375 0.14453125 518.373046875 c 0
 2.2314453125 567.521484375 26.9541015625 615.252929688 65.8935546875 645.314453125 c 0
 93.5224609375 666.643554688 127.877929688 679.125 162.754882812 680.502929688 c 0
 197.631835938 681.879882812 172.393554688 681.814453125 177.393554688 679.314453125 c 0
 179.393554688 678.314453125 182.393554688 675.814453125 182.393554688 673.314453125 c 24
 182.393554688 669.814453125 183.393554688 668.314453125 176.393554688 664.314453125 c 0
 171.697265625 661.630859375 168.091796875 663.05078125 162.579101562 662.715820312 c 0
EndSplineSet
Validated: 33
EndChar

StartChar: do.emph
Encoding: 47 57608 47
Width: 339
VWidth: 799
InSpiro: 1
Flags: W
HStem: 638.622 20.6016<117.595 223.213>
VStem: 150.724 36.5576<478.216 506.899>
AnchorPoint: "CursPos" 327.554 488.475 exit 0
AnchorPoint: "CursPos" 7.55371 491.475 entry 0
LayerCount: 2
Fore
SplineSet
162 507 m 0
 156.580078125 504.888671875 152.270507812 500.115234375 150.723632812 494.506835938 c 0
 149.176757812 488.899414062 150.428710938 482.591796875 154 478 c 0
 155.985351562 475.447265625 158.642578125 473.421875 161.629882812 472.184570312 c 0
 164.6171875 470.947265625 167.928710938 470.5 171.137695312 470.901367188 c 0
 174.346679688 471.301757812 177.4453125 472.549804688 180.036132812 474.485351562 c 0
 182.626953125 476.419921875 184.704101562 479.037109375 186 482 c 0
 187.474609375 485.373046875 187.926757812 489.185546875 187.28125 492.809570312 c 0
 186.634765625 496.43359375 184.89453125 499.85546875 182.344726562 502.510742188 c 0
 179.794921875 505.166992188 176.447265625 507.045898438 172.852539062 507.838867188 c 0
 169.2578125 508.631835938 165.430664062 508.3359375 162 507 c 0
  Spiro
    162 507 o
    154 478 o
    186 482 o
    0 0 z
  EndSpiro
44.5537109375 604.474609375 m 0
 77.8076171875 640.724609375 127.463867188 661.311523438 176.612304688 659.223632812 c 0
 225.760742188 657.13671875 273.4921875 632.4140625 303.553710938 593.474609375 c 0
 324.8828125 565.845703125 337.364257812 531.490234375 338.741210938 496.61328125 c 0
 340.119140625 461.736328125 330.387695312 426.502929688 311.303710938 397.27734375 c 0
 292.219726562 368.051757812 263.875 344.973632812 231.388671875 332.208984375 c 0
 198.901367188 319.4453125 162.427734375 317.056640625 128.553710938 325.474609375 c 0
 100.192382812 332.5234375 73.7275390625 347.059570312 52.564453125 367.212890625 c 0
 31.4013671875 387.366210938 15.58984375 413.08984375 7.1640625 441.073242188 c 0
 -1.2607421875 469.055664062 -2.279296875 499.233398438 4.2392578125 527.720703125 c 0
 10.7578125 556.208984375 24.7978515625 582.939453125 44.5537109375 604.474609375 c 0
  Spiro
    44.5531 604.475 o
    303.553 593.475 o
    128.553 325.475 o
    0 0 z
  EndSpiro
140.553710938 339.474609375 m 0
 170.655273438 333.4609375 202.577148438 336.909179688 230.701171875 349.211914062 c 0
 258.825195312 361.515625 283.024414062 382.6171875 299.040039062 408.805664062 c 0
 315.055664062 434.993164062 322.81640625 466.1484375 320.955078125 496.7890625 c 0
 319.094726562 527.430664062 307.62109375 557.41796875 288.553710938 581.474609375 c 0
 261.46875 615.647460938 218.979492188 637.106445312 175.40234375 638.622070312 c 0
 131.82421875 640.137695312 87.9462890625 621.682617188 58.5537109375 589.474609375 c 0
 40.6171875 569.821289062 28.013671875 545.34765625 22.4306640625 519.33203125 c 0
 16.84765625 493.31640625 18.2998046875 465.826171875 26.591796875 440.543945312 c 0
 34.884765625 415.260742188 49.9970703125 392.250976562 69.9033203125 374.596679688 c 0
 89.810546875 356.94140625 114.4609375 344.6875 140.553710938 339.474609375 c 0
  Spiro
    140.553 339.475 o
    288.553 581.475 o
    58.5531 589.475 o
    0 0 z
  EndSpiro
EndSplineSet
Validated: 524329
Ligature2: "NoteNames-emph" D O asterisk
EndChar

StartChar: re.emph
Encoding: 48 57609 48
Width: 61
VWidth: 813
InSpiro: 1
Flags: W
VStem: 19.9033 14<345.466 433.603 674.846 691.255>
AnchorPoint: "CursPos" 24.9033 344.042 exit 0
AnchorPoint: "CursPos" 31.9033 686.042 entry 0
LayerCount: 2
Fore
SplineSet
1 523 m 0
 1.22079243558 515.513547382 4.35397694495 508.15058776 9.59550632528 502.800625905 c 0
 14.8370357056 497.450664049 22.1343055965 494.167392556 29.614668724 493.793374398 c 0
 37.0950318516 493.419356241 44.6834147608 495.958345092 50.4324638801 500.758778023 c 0
 56.1815129993 505.559210955 60.033530463 512.57291048 61 520 c 0
 62.1258899954 528.65219799 59.2646094164 537.742687837 53.3860091949 544.190184853 c 0
 47.5074089733 550.63768187 38.7191223014 554.324136748 30 554 c 0
 22.1552883575 553.708369807 14.4773760863 550.20625491 9.11450347091 544.473529011 c 0
 3.75163085554 538.740803112 0.768582514333 530.846718733 1 523 c 0
  Spiro
    1 523 o
    61 520 o
    30 554 o
    0 0 z
  EndSpiro
23.9033203125 687.041992188 m 0
 11.9033203125 554.541992188 13.5703125 479.026367188 19.9033203125 346.041992188 c 0
 20.4033203125 335.541992188 32.984375 338.534179688 33.9033203125 349.041992188 c 0
 45.4033203125 480.541992188 48.6923828125 555.198242188 39.9033203125 687.041992188 c 0
 39.4033203125 694.541992188 24.5810546875 694.52734375 23.9033203125 687.041992188 c 0
  Spiro
    23.9033 687.042 o
    16.1295 569.405 o
    15.4612 464.002 o
    19.9033 346.042 o
    23.545 339.82 o
    29.9824 341.266 o
    33.9033 349.042 o
    42.5175 465.711 o
    44.8084 570.144 o
    39.9033 687.042 o
    35.6904 692.036 o
    28.2346 692.033 o
    0 0 z
  EndSpiro
EndSplineSet
Validated: 524325
Ligature2: "NoteNames-emph" R E asterisk
EndChar

StartChar: d
Encoding: 49 100 49
Width: 1000
Flags: W
HStem: 198 344<212 730>
LayerCount: 2
Fore
SplineSet
212 542 m 5
 730 542 l 5
 730 198 l 5
 212 198 l 5
 212 542 l 5
EndSplineSet
Validated: 1
Substitution2: "AllCaps" D
EndChar

StartChar: r
Encoding: 50 114 50
Width: 1000
Flags: W
HStem: 198 344<212 730>
LayerCount: 2
Fore
SplineSet
212 542 m 5
 730 542 l 5
 730 198 l 5
 212 198 l 5
 212 542 l 5
EndSplineSet
Validated: 1
Substitution2: "AllCaps" R
EndChar

StartChar: D
Encoding: 51 68 51
Width: 1000
Flags: W
VStem: 281 98<205 494> 288 86<205 494>
LayerCount: 2
Fore
SplineSet
374 494 m 29x40
 479 472 l 25
 518 396 l 25
 520 284 l 25
 449 214 l 25
 379 205 l 25x80
 374 494 l 29x40
288 621 m 25x40
 281 85 l 25x80
 490 93 l 25
 574 215 l 25
 609 439 l 25
 498 609 l 25
 288 621 l 25x40
EndSplineSet
Validated: 9
EndChar

StartChar: R
Encoding: 52 82 52
Width: 1000
Flags: W
VStem: 260 117<124.625 325> 260 109<107 296.375>
LayerCount: 2
Fore
SplineSet
339 575 m 29x00
 414 590 l 25
 468 518 l 25
 470 461 l 25
 370 446 l 25
 339 575 l 29x00
263 628 m 25
 260 107 l 25
 369 96 l 25x40
 377 325 l 25x80
 554 86 l 25
 605 108 l 25
 401 372 l 25
 518 396 l 25
 550 488 l 25
 488 629 l 25
 374 651 l 25
 263 628 l 25
EndSplineSet
Validated: 9
EndChar

StartChar: mi.emph
Encoding: 53 57610 53
Width: 340
VWidth: 808
InSpiro: 1
Flags: W
HStem: 497.62 36.3799<161.81 190.362> 646.819 20.6016<117.992 223.61>
VStem: 0.951172 15<499.113 528.593> 153 37.3662<497.511 531.811> 322.951 16.1885<490.384 540.28>
AnchorPoint: "CursPos" 331.951 502.672 exit 0
AnchorPoint: "CursPos" 4.95117 508.672 entry 0
LayerCount: 2
Fore
SplineSet
153 519 m 0
 153.8515625 524.271484375 157.068359375 529.115234375 161.596679688 531.9453125 c 0
 166.125 534.775390625 171.888671875 535.543945312 177 534 c 0
 180.83203125 532.842773438 184.272460938 530.423828125 186.659179688 527.209960938 c 0
 189.045898438 523.99609375 190.366210938 520.002929688 190.366210938 516 c 0
 190.366210938 511.997070312 189.045898438 508.00390625 186.659179688 504.790039062 c 0
 184.272460938 501.576171875 180.83203125 499.157226562 177 498 c 0
 173.963867188 497.083007812 170.693359375 496.951171875 167.592773438 497.620117188 c 0
 164.4921875 498.290039062 161.567382812 499.759765625 159.180664062 501.848632812 c 0
 156.79296875 503.9375 154.948242188 506.641601562 153.873046875 509.625 c 0
 152.796875 512.609375 152.494140625 515.868164062 153 519 c 0
  Spiro
    153 519 o
    177 534 o
    177 498 o
    0 0 z
  EndSpiro
321.352539062 504.986328125 m 0
 319.4921875 535.626953125 308.018554688 565.615234375 288.951171875 589.671875 c 0
 261.8671875 623.844726562 219.376953125 645.303710938 175.799804688 646.819335938 c 0
 132.221679688 648.334960938 88.34375 629.879882812 58.951171875 597.671875 c 0
 41.0146484375 578.018554688 33.4423828125 556.517578125 22.828125 527.529296875 c 0
 19.951171875 519.671875 17.8798828125 506.21875 15.951171875 503.171875 c 0
 13.0537109375 498.595703125 2.0517578125 496.620117188 0.951171875 502.671875 c 0
 -0.048828125 508.171875 -1.6552734375 507.1953125 4.63671875 535.91796875 c 0
 10.890625 564.46484375 25.1953125 591.13671875 44.951171875 612.671875 c 0
 78.205078125 648.921875 127.861328125 669.508789062 177.009765625 667.420898438 c 0
 226.158203125 665.333984375 273.889648438 640.611328125 303.951171875 601.671875 c 0
 325.28125 574.04296875 337.76171875 539.6875 339.139648438 504.810546875 c 0
 340.517578125 469.93359375 340.451171875 495.171875 337.951171875 490.171875 c 0
 336.951171875 488.171875 334.451171875 485.171875 331.951171875 485.171875 c 24
 328.451171875 485.171875 326.951171875 484.171875 322.951171875 491.171875 c 0
 320.267578125 495.868164062 321.6875 499.473632812 321.352539062 504.986328125 c 0
  Spiro
    321.353 504.986 o
    316.371 535.184 o
    305.399 563.861 o
    288.951 589.672 o
    257.298 619.314 o
    218.443 638.938 o
    175.8 646.819 o
    132.711 641.919 o
    92.5872 625.043 o
    58.9512 597.672 o
    43.9854 577.215 o
    32.9148 554.206 o
    22.8281 527.529 o
    20.1976 518.409 o
    17.9499 509.087 o
    15.9512 503.172 o
    11.0254 499.666 o
    4.67963 499.096 o
    0.951172 502.672 o
    0.0644791 507.348 o
    0.664516 515.768 o
    4.63672 535.918 o
    13.4666 563.692 o
    27.1245 589.57 o
    44.9512 612.672 o
    83.0039 643.416 o
    128.366 662.222 o
    177.01 667.421 o
    225.038 658.117 o
    268.642 635.532 o
    303.951 601.672 o
    322.233 572.062 o
    334.153 539.25 o
    339.14 504.811 o
    339.999 486.63 o
    339.676 488.444 o
    337.951 490.172 o
    336.509 487.989 o
    334.393 486.022 o
    331.951 485.172 o
    328.954 485.172 o
    326.282 486.508 o
    322.951 491.172 o
    321.419 495.611 o
    321.32 500.003 o
    0 0 z
  EndSpiro
EndSplineSet
Validated: 524321
Ligature2: "NoteNames-emph" M I asterisk
EndChar

StartChar: fa.emph
Encoding: 54 57611 54
Width: 223
VWidth: 809
InSpiro: 1
Flags: W
AnchorPoint: "CursPos" 214.978 358.061 exit 0
AnchorPoint: "CursPos" 6.97754 662.561 entry 0
LayerCount: 2
Fore
SplineSet
143 510 m 0
 142.564453125 517.563476562 139.333984375 524.935546875 134.068359375 530.3828125 c 0
 128.802734375 535.830078125 121.544921875 539.307617188 114 540 c 0
 107.014648438 540.640625 99.83203125 538.901367188 93.9140625 535.134765625 c 0
 87.99609375 531.369140625 83.3779296875 525.599609375 81 519 c 0
 77.7978515625 510.114257812 78.802734375 499.810546875 83.662109375 491.7109375 c 0
 88.521484375 483.611328125 97.138671875 477.875976562 106.486328125 476.518554688 c 0
 115.833984375 475.162109375 125.7265625 478.2109375 132.688476562 484.594726562 c 0
 139.650390625 490.978515625 143.54296875 500.5703125 143 510 c 0
  Spiro
    143 510 o
    114 540 o
    81 519 o
    0 0 z
  EndSpiro
0.9775390625 657.560546875 m 0
 75.4775390625 536.560546875 119.079101562 464.68359375 207.977539062 353.560546875 c 0
 211.977539062 348.560546875 226.40234375 355.012695312 222.977539062 360.560546875 c 0
 147.977539062 482.060546875 100.170898438 550.208984375 12.9775390625 663.560546875 c 0
 7.9775390625 670.060546875 -3.384765625 664.646484375 0.9775390625 657.560546875 c 0
  Spiro
    0.977539 657.561 o
    67.9377 549.76 o
    131.423 454.78 o
    207.978 353.561 o
    214.397 351.919 o
    221.505 355.174 o
    222.978 360.561 o
    154.64 467.83 o
    89.4396 561.721 o
    12.9775 663.561 o
    6.68159 666.469 o
    1.03507 663.705 o
    0 0 z
  EndSpiro
EndSplineSet
Validated: 524293
Ligature2: "NoteNames-emph" F A asterisk
EndChar

StartChar: sol.emph
Encoding: 55 57612 55
Width: 317
VWidth: 827
InSpiro: 1
Flags: W
HStem: 538.516 15<0.645519 135.621 181.305 316.711>
VStem: 136.594 58.4873<549.353 570.722>
AnchorPoint: "CursPos" 307.874 542.016 exit 0
AnchorPoint: "CursPos" 8.87402 547.016 entry 0
LayerCount: 2
Fore
SplineSet
159 518 m 0
 151.730481331 519.790127175 145.197647301 524.412270628 141.090215443 530.671620475 c 0
 136.982783585 536.930970322 135.342622753 544.763722266 136.593709485 552.145133985 c 0
 137.844796217 559.526545704 141.974377638 566.381375233 147.914969632 570.93767019 c 0
 153.855561627 575.493965147 161.546609136 577.705281221 169 577 c 0
 175.001087706 576.432143766 180.813066744 574.00414172 185.434708397 570.134265392 c 0
 190.05635005 566.264389065 193.467669087 560.969372852 195.080998112 555.161388363 c 0
 196.694327137 549.353403875 196.502689678 543.057566412 194.539099089 537.358458906 c 0
 192.575508501 531.659351401 188.848455882 526.581618339 184 523 c 0
 176.940020644 517.784700087 167.522788602 515.901253678 159 518 c 0
  Spiro
    159 518 o
    169 577 o
    184 523 o
    0 0 z
  EndSpiro
3.3740234375 553.515625 m 0
 118.874023438 558.015625 198.1171875 559.120117188 313.374023438 549.515625 c 0
 319.374023438 549.015625 318.374023438 534.515625 312.374023438 534.515625 c 24
 197.874023438 530.015625 118.03125 538.515625 3.3740234375 538.515625 c 0
 -1.1259765625 538.515625 -1.123046875 553.340820312 3.3740234375 553.515625 c 0
  Spiro
    3.37402 553.516 o
    109.366 556.611 o
    207.544 555.818 o
    313.374 549.516 o
    317.113 545.411 o
    316.631 538.287 o
    312.374 534.516 o
    206.953 533.551 o
    108.9 536.482 o
    3.37402 538.516 o
    0.376175 542.359 o
    0.376827 549.556 o
    0 0 z
  EndSpiro
EndSplineSet
Validated: 524325
Ligature2: "NoteNames-emph" S O asterisk L
EndChar

StartChar: la.emph
Encoding: 56 57613 56
Width: 182
VWidth: 810
InSpiro: 1
Flags: W
HStem: 342.314 15<138.972 168.452> 495.027 38.7147<136.222 166.856> 662.716 17.7871<120.923 177.181>
VStem: 0.144531 20.6016<459.356 564.973> 128.072 38.9279<499.15 526.793>
AnchorPoint: "CursPos" 161.036 348.191 exit 0
AnchorPoint: "CursPos" 177.036 672.191 entry 0
LayerCount: 2
Fore
SplineSet
131 527 m 0
 128.223389455 522.600862581 127.157576148 517.151827951 128.072058854 512.030724795 c 0
 128.98654156 506.90962164 131.872427835 502.166247648 136 499 c 0
 140.717939214 495.380883642 147.011862552 493.896679404 152.849693764 495.026582219 c 0
 158.687524976 496.156485035 163.973136923 499.881889651 167 505 c 0
 169.785663893 509.710267638 170.635138266 515.527855674 169.312636636 520.837990699 c 0
 167.990135006 526.148125725 164.511361213 530.887753364 159.841909826 533.74130699 c 0
 155.172458439 536.594860615 149.367776135 537.528456147 144.039054111 536.282957799 c 0
 138.710332086 535.037459451 133.920845425 531.627656702 131 527 c 0
  Spiro
    131 527 o
    136 499 o
    167 505 o
    0 0 z
  EndSpiro
162.579101562 662.715820312 m 0
 131.938476562 660.85546875 101.950195312 649.381835938 77.8935546875 630.314453125 c 0
 43.720703125 603.229492188 22.26171875 560.740234375 20.74609375 517.163085938 c 0
 19.23046875 473.584960938 37.685546875 429.70703125 69.8935546875 400.314453125 c 0
 89.546875 382.377929688 111.047851562 374.805664062 140.036132812 364.19140625 c 0
 147.893554688 361.314453125 161.346679688 359.243164062 164.393554688 357.314453125 c 0
 168.969726562 354.416992188 170.9453125 343.415039062 164.893554688 342.314453125 c 0
 159.393554688 341.314453125 160.370117188 339.708007812 131.647460938 346 c 0
 103.100585938 352.252929688 76.4287109375 366.55859375 54.8935546875 386.314453125 c 0
 18.6435546875 419.568359375 -1.943359375 469.224609375 0.14453125 518.373046875 c 0
 2.2314453125 567.521484375 26.9541015625 615.252929688 65.8935546875 645.314453125 c 0
 93.5224609375 666.643554688 127.877929688 679.125 162.754882812 680.502929688 c 0
 197.631835938 681.879882812 172.393554688 681.814453125 177.393554688 679.314453125 c 0
 179.393554688 678.314453125 182.393554688 675.814453125 182.393554688 673.314453125 c 24
 182.393554688 669.814453125 183.393554688 668.314453125 176.393554688 664.314453125 c 0
 171.697265625 661.630859375 168.091796875 663.05078125 162.579101562 662.715820312 c 0
  Spiro
    162.579 662.716 o
    132.381 657.734 o
    103.704 646.762 o
    77.8936 630.314 o
    48.2513 598.661 o
    28.6277 559.806 o
    20.7461 517.163 o
    25.646 474.075 o
    42.5225 433.95 o
    69.8936 400.314 o
    90.3501 385.349 o
    113.359 374.278 o
    140.036 364.191 o
    149.156 361.561 o
    158.479 359.313 o
    164.394 357.314 o
    167.9 352.389 o
    168.469 346.043 o
    164.894 342.314 o
    160.218 341.428 o
    151.797 342.028 o
    131.647 346 o
    103.873 354.829 o
    77.9956 368.488 o
    54.8936 386.314 o
    24.1493 424.367 o
    5.34297 469.729 o
    0.144531 518.373 o
    9.44864 566.401 o
    32.0334 610.005 o
    65.8936 645.314 o
    95.5034 663.596 o
    128.315 675.516 o
    162.755 680.503 o
    180.935 681.362 o
    179.121 681.039 o
    177.394 679.314 o
    179.577 677.872 o
    181.543 675.757 o
    182.394 673.314 o
    182.394 670.317 o
    181.058 667.645 o
    176.394 664.314 o
    171.954 662.782 o
    167.563 662.683 o
    0 0 z
  EndSpiro
EndSplineSet
Validated: 524329
Ligature2: "NoteNames-emph" L A asterisk A
Ligature2: "NoteNames-emph" L A asterisk
EndChar

StartChar: si.emph
Encoding: 57 57614 57
Width: 223
VWidth: 698
InSpiro: 1
Flags: W
HStem: 231.561 310
VStem: 0.521484 222
AnchorPoint: "CursPos" 216.021 539.561 exit 0
AnchorPoint: "CursPos" 6.52148 235.061 entry 0
LayerCount: 2
Fore
SplineSet
90 411 m 0
 97.244669048 417.830258509 107.343306099 421.532923828 117.286060221 421.004434098 c 0
 127.228814343 420.475944369 136.878040964 415.723615849 143.357833802 408.163857539 c 0
 149.837626639 400.60409923 153.058281342 390.341566207 152.059897032 380.434957822 c 0
 151.061512721 370.528349437 145.857910737 361.114809872 138 355 c 0
 131.798049371 350.173812709 124.021784156 347.40549553 116.165296841 347.226939 c 0
 108.308809526 347.048382471 100.414805859 349.460557176 94 354 c 0
 85.1106726221 360.290540082 79.2598028928 370.689218591 78.497470578 381.552454076 c 0
 77.7351382633 392.415689561 82.0763524854 403.52960203 90 411 c 0
  Spiro
    90 411 o
    138 355 o
    94 354 o
    0 0 z
  EndSpiro
222.521484375 535.560546875 m 0
 148.021484375 414.560546875 104.419921875 342.68359375 15.521484375 231.560546875 c 0
 11.521484375 226.560546875 -2.9033203125 233.012695312 0.521484375 238.560546875 c 0
 75.521484375 360.060546875 123.328125 428.208984375 210.521484375 541.560546875 c 0
 215.521484375 548.060546875 226.883789062 542.646484375 222.521484375 535.560546875 c 0
  Spiro
    222.521 535.561 o
    155.561 427.76 o
    92.0758 332.78 o
    15.5215 231.561 o
    9.10156 229.919 o
    1.99402 233.174 o
    0.521484 238.561 o
    68.8587 345.83 o
    134.059 439.721 o
    210.521 541.561 o
    216.817 544.469 o
    222.464 541.705 o
    0 0 z
  EndSpiro
EndSplineSet
Validated: 524325
Ligature2: "NoteNames-emph" S I asterisk
EndChar

StartChar: la.alt.emph
Encoding: 58 57615 58
Width: 182
VWidth: 810
InSpiro: 1
Flags: W
HStem: 342.314 15<138.972 168.452> 499 36<142.486 169.997> 662.716 17.7871<120.923 177.181>
VStem: 0.144531 20.6016<459.356 564.973> 133 35.1973<500.136 528.644>
AnchorPoint: "CursPos" 161.036 348.191 exit 0
AnchorPoint: "CursPos" 11.0361 511.191 entry 0
LayerCount: 2
Fore
SplineSet
159 499 m 0
 153.668154354 496.719228305 147.272264092 497.100454492 142.249097303 499.998435329 c 0
 137.225930514 502.896416166 133.694406721 508.24254424 133 514 c 0
 132.359512741 519.310399434 134.12459634 524.864494003 137.713234263 528.830883284 c 0
 141.301872187 532.797272566 146.652197345 535.107577148 152 535 c 0
 156.246619601 534.914574404 160.448414244 533.334099857 163.698621957 530.599648287 c 0
 166.948829671 527.865196717 169.224880838 523.995756305 170.035595657 519.826365815 c 0
 170.846310477 515.656975326 170.186059301 511.216587234 168.19732664 507.463452814 c 0
 166.208593979 503.710318394 162.905189701 500.670499616 159 499 c 0
  Spiro
    159 499 o
    133 514 o
    152 535 o
    0 0 z
  EndSpiro
162.579101562 662.715820312 m 0
 131.938476562 660.85546875 101.950195312 649.381835938 77.8935546875 630.314453125 c 0
 43.720703125 603.229492188 22.26171875 560.740234375 20.74609375 517.163085938 c 0
 19.23046875 473.584960938 37.685546875 429.70703125 69.8935546875 400.314453125 c 0
 89.546875 382.377929688 111.047851562 374.805664062 140.036132812 364.19140625 c 0
 147.893554688 361.314453125 161.346679688 359.243164062 164.393554688 357.314453125 c 0
 168.969726562 354.416992188 170.9453125 343.415039062 164.893554688 342.314453125 c 0
 159.393554688 341.314453125 160.370117188 339.708007812 131.647460938 346 c 0
 103.100585938 352.252929688 76.4287109375 366.55859375 54.8935546875 386.314453125 c 0
 18.6435546875 419.568359375 -1.943359375 469.224609375 0.14453125 518.373046875 c 0
 2.2314453125 567.521484375 26.9541015625 615.252929688 65.8935546875 645.314453125 c 0
 93.5224609375 666.643554688 127.877929688 679.125 162.754882812 680.502929688 c 0
 197.631835938 681.879882812 172.393554688 681.814453125 177.393554688 679.314453125 c 0
 179.393554688 678.314453125 182.393554688 675.814453125 182.393554688 673.314453125 c 24
 182.393554688 669.814453125 183.393554688 668.314453125 176.393554688 664.314453125 c 0
 171.697265625 661.630859375 168.091796875 663.05078125 162.579101562 662.715820312 c 0
  Spiro
    162.579 662.716 o
    132.381 657.734 o
    103.704 646.762 o
    77.8936 630.314 o
    48.2513 598.661 o
    28.6277 559.806 o
    20.7461 517.163 o
    25.646 474.075 o
    42.5225 433.95 o
    69.8936 400.314 o
    90.3501 385.349 o
    113.359 374.278 o
    140.036 364.191 o
    149.156 361.561 o
    158.479 359.313 o
    164.394 357.314 o
    167.9 352.389 o
    168.469 346.043 o
    164.894 342.314 o
    160.218 341.428 o
    151.797 342.028 o
    131.647 346 o
    103.873 354.829 o
    77.9956 368.488 o
    54.8936 386.314 o
    24.1493 424.367 o
    5.34297 469.729 o
    0.144531 518.373 o
    9.44864 566.401 o
    32.0334 610.005 o
    65.8936 645.314 o
    95.5034 663.596 o
    128.315 675.516 o
    162.755 680.503 o
    180.935 681.362 o
    179.121 681.039 o
    177.394 679.314 o
    179.577 677.872 o
    181.543 675.757 o
    182.394 673.314 o
    182.394 670.317 o
    181.058 667.645 o
    176.394 664.314 o
    171.954 662.782 o
    167.563 662.683 o
    0 0 z
  EndSpiro
EndSplineSet
Validated: 524321
EndChar

StartChar: acircumflex
Encoding: 59 226 59
Width: 1000
Flags: W
HStem: 198 344<212 730>
LayerCount: 2
Fore
SplineSet
212 542 m 5
 730 542 l 5
 730 198 l 5
 212 198 l 5
 212 542 l 5
EndSplineSet
Validated: 1
MultipleSubs2: "CircumflexSub-1" A asterisk
EndChar

StartChar: ecircumflex
Encoding: 60 234 60
Width: 1000
Flags: W
HStem: 198 344<212 730>
LayerCount: 2
Fore
SplineSet
212 542 m 5
 730 542 l 5
 730 198 l 5
 212 198 l 5
 212 542 l 5
EndSplineSet
Validated: 1
MultipleSubs2: "CircumflexSub-1" E asterisk
EndChar

StartChar: icircumflex
Encoding: 61 238 61
Width: 1000
Flags: W
HStem: 198 344<212 730>
LayerCount: 2
Fore
SplineSet
212 542 m 5
 730 542 l 5
 730 198 l 5
 212 198 l 5
 212 542 l 5
EndSplineSet
Validated: 1
MultipleSubs2: "CircumflexSub-1" I asterisk
EndChar

StartChar: ocircumflex
Encoding: 62 244 62
Width: 1000
Flags: W
HStem: 198 344<212 730>
LayerCount: 2
Fore
SplineSet
212 542 m 5
 730 542 l 5
 730 198 l 5
 212 198 l 5
 212 542 l 5
EndSplineSet
Validated: 1
MultipleSubs2: "CircumflexSub-1" O asterisk
EndChar

StartChar: asterisk
Encoding: 63 42 63
Width: 221
InSpiro: 1
Flags: W
HStem: 511.081 117.912<58.2981 154.206>
VStem: 43.6787 125.321<525.639 622.14>
LayerCount: 2
Fore
SplineSet
81 632 m 0
 71.2275390625 627.749023438 62.5625 620.981445312 56.0693359375 612.530273438 c 0
 49.576171875 604.080078125 45.26953125 593.963867188 43.6787109375 583.42578125 c 0
 42.087890625 572.887695312 43.216796875 561.951171875 46.9267578125 551.9609375 c 0
 50.6357421875 541.969726562 56.91796875 532.946289062 65 526 c 0
 74.6279296875 517.724609375 86.7978515625 512.450195312 99.4189453125 511.081054688 c 0
 112.041015625 509.712890625 125.05859375 512.256835938 136.236328125 518.275390625 c 0
 147.4140625 524.293945312 156.704101562 533.762695312 162.508789062 545.052734375 c 0
 168.313476562 556.342773438 170.608398438 569.407226562 169 582 c 0
 166.522460938 601.393554688 154.495117188 619.334960938 137.49609375 628.993164062 c 0
 120.497070312 638.651367188 98.927734375 639.799804688 81 632 c 0
  Spiro
    81 632 o
    65 526 o
    169 582 o
    0 0 z
  EndSpiro
EndSplineSet
Validated: 524329
EndChar

StartChar: asciicircum
Encoding: 64 94 64
Width: 1000
Flags: W
HStem: 198 344<212 730>
LayerCount: 2
Fore
SplineSet
212 542 m 5
 730 542 l 5
 730 198 l 5
 212 198 l 5
 212 542 l 5
EndSplineSet
Validated: 1
MultipleSubs2: "CircumflexSub-1" asterisk
EndChar
